<svg xmlns="http://www.w3.org/2000/svg" width="410" height="96" viewBox="0 0 410 96" role="img" aria-label="Orcheo node hierarchy">
  <defs>
    <marker id="arrow" markerWidth="6" markerHeight="6" refX="5.5" refY="3" orient="auto" markerUnits="strokeWidth">
      <path d="M0,0 L6,3 L0,6 z" fill="#000"/>
    </marker>
    <style>
      text { font: 700 8.5px Arial, sans-serif; fill: #111; text-anchor: middle; dominant-baseline: middle; }
      rect { fill: #f8f8f8; stroke: #111; stroke-width: .7; rx: 2; }
      line { stroke: #000; stroke-width: .9; marker-end: url(#arrow); }
    </style>
  </defs>
  <rect x="170" y="4" width="70" height="20"/>
  <text x="205" y="14">BaseNode</text>
  <rect x="72" y="39" width="72" height="20"/>
  <text x="108" y="49">AINode</text>
  <rect x="265" y="39" width="72" height="20"/>
  <text x="301" y="49">TaskNode</text>
  <rect x="8" y="72" width="67" height="20"/>
  <text x="41.5" y="82">AgentNode</text>
  <rect x="92" y="72" width="67" height="20"/>
  <text x="125.5" y="82">LLMNode</text>
  <rect x="176" y="72" width="67" height="20"/>
  <text x="209.5" y="77.5">Retrieval</text>
  <text x="209.5" y="86.5">EvalNode</text>
  <rect x="252" y="72" width="67" height="20"/>
  <text x="285.5" y="77.5">Dense</text>
  <text x="285.5" y="86.5">SearchNode</text>
  <rect x="328" y="72" width="74" height="20"/>
  <text x="365" y="77.5">ReRanker</text>
  <text x="365" y="86.5">Node</text>
  <line x1="190" y1="24" x2="123" y2="39"/>
  <line x1="220" y1="24" x2="286" y2="39"/>
  <line x1="92" y1="59" x2="53" y2="72"/>
  <line x1="120" y1="59" x2="128" y2="72"/>
  <line x1="282" y1="59" x2="225" y2="72"/>
  <line x1="301" y1="59" x2="286" y2="72"/>
  <line x1="319" y1="59" x2="358" y2="72"/>
</svg>
